<?xml version="1.0" standalone="no"?>
<!DOCTYPE svg PUBLIC "-//W3C//DTD SVG 20010904//EN"
 "http://www.w3.org/TR/2001/REC-SVG-20010904/DTD/svg10.dtd">
<svg version="1.0" xmlns="http://www.w3.org/2000/svg"
 width="1348.000000pt" height="1348.000000pt" viewBox="0 0 1348.000000 1348.000000"
 preserveAspectRatio="xMidYMid meet">
<metadata>
Created by potrace 1.11, written by Peter Selinger 2001-2013
</metadata>
<g transform="translate(0.000000,1348.000000) scale(0.100000,-0.100000)"
fill="#000000" stroke="none">
<path d="M6800 13457 c-3 -3 -33 -7 -67 -10 -254 -24 -534 -171 -668 -351 -79
-107 -122 -216 -132 -338 -3 -43 -9 -78 -12 -79 -3 0 -24 -2 -46 -5 -22 -2
-53 -6 -70 -9 -16 -3 -48 -8 -70 -11 -35 -5 -73 -11 -175 -30 -14 -2 -48 -9
-76 -15 -28 -5 -61 -12 -75 -14 -13 -3 -105 -25 -203 -50 -682 -174 -1388
-508 -2026 -959 -63 -44 -122 -86 -130 -93 -8 -6 -60 -47 -115 -89 -338 -262
-692 -601 -979 -938 -22 -27 -46 -54 -51 -60 -22 -24 -193 -245 -241 -311
-285 -393 -549 -922 -625 -1253 -6 -26 -13 -56 -15 -67 -3 -11 -9 -45 -14 -75
-37 -216 -28 -412 27 -579 47 -144 94 -222 201 -328 138 -139 323 -247 554
-324 68 -23 124 -42 126 -44 1 -1 -14 -51 -33 -111 -19 -60 -50 -156 -69 -214
-19 -58 -59 -181 -89 -275 -30 -93 -78 -242 -106 -330 -29 -88 -78 -241 -111
-340 -32 -99 -84 -259 -115 -355 -31 -96 -80 -249 -110 -340 -227 -699 -281
-885 -301 -1035 -3 -27 -8 -59 -11 -70 -9 -39 -11 -352 -2 -430 47 -420 237
-799 509 -1015 64 -51 147 -104 202 -129 26 -11 49 -24 51 -28 3 -5 8 -33 11
-63 4 -30 9 -75 12 -100 20 -173 112 -519 179 -675 7 -16 18 -46 26 -65 24
-66 145 -305 203 -400 51 -84 190 -286 205 -300 4 -3 26 -30 51 -60 362 -444
909 -801 1473 -961 23 -7 47 -14 52 -15 42 -12 228 -55 260 -60 22 -3 42 -7
45 -9 3 -2 34 -6 70 -10 36 -4 74 -9 85 -11 109 -23 586 -23 715 0 14 3 47 7
74 11 151 19 517 111 571 144 6 3 12 6 15 7 30 6 207 82 311 134 176 88 460
270 554 357 11 10 42 35 68 57 133 106 376 370 485 525 45 64 151 224 154 233
3 7 21 11 103 24 22 3 85 15 140 26 55 11 111 21 125 24 21 3 48 10 80 19 3 1
21 5 40 9 131 29 421 120 604 190 184 70 614 274 657 312 8 8 19 14 22 14 19
0 311 188 442 283 74 55 243 185 261 202 6 5 35 30 64 55 57 49 75 64 166 153
l60 58 59 -88 c86 -129 200 -266 303 -365 94 -88 232 -198 250 -198 6 0 12 -4
14 -9 6 -15 173 -101 259 -132 223 -81 389 -93 622 -44 15 3 56 16 90 29 262
99 464 295 607 591 50 103 108 262 126 346 40 188 49 282 49 504 0 384 -19
480 -246 1255 -33 113 -80 273 -104 355 -25 83 -85 287 -134 455 -49 168 -137
469 -196 670 -58 201 -117 401 -130 445 -13 44 -63 213 -110 375 -47 162 -88
303 -91 313 -3 10 0 17 9 17 19 0 245 101 323 145 77 43 183 122 226 168 103
110 180 263 225 444 24 98 26 126 27 303 0 181 -6 247 -39 410 -6 30 -47 176
-65 230 -85 265 -262 620 -458 920 -72 110 -279 393 -318 435 -11 11 -32 36
-47 55 -139 171 -350 389 -588 605 -64 58 -273 232 -349 290 -36 28 -67 52
-70 56 -3 3 -27 21 -55 40 -27 18 -52 37 -55 40 -10 12 -306 207 -398 263
-116 70 -237 139 -322 184 -35 18 -69 36 -75 40 -5 4 -12 7 -15 8 -3 0 -70 33
-150 71 -280 137 -585 258 -850 339 -63 19 -135 41 -160 49 -50 15 -245 66
-270 70 -11 1 -14 12 -12 36 5 63 3 140 -3 172 -12 60 -48 162 -66 189 -11 14
-19 30 -19 35 0 13 -95 130 -139 170 -102 96 -301 211 -431 249 -131 38 -239
55 -380 60 -86 3 -158 3 -160 1z"/>
</g>
</svg>
